<?xml version="1.0" standalone="no"?>
<!DOCTYPE svg PUBLIC "-//W3C//DTD SVG 20010904//EN"
 "http://www.w3.org/TR/2001/REC-SVG-20010904/DTD/svg10.dtd">
<svg version="1.0" xmlns="http://www.w3.org/2000/svg"
 width="612.000000pt" height="612.000000pt" viewBox="0 0 612.000000 612.000000"
 preserveAspectRatio="xMidYMid meet">
<metadata>
Created by potrace 1.14, written by Peter Selinger 2001-2017
</metadata>
<g transform="translate(0.000000,612.000000) scale(0.100000,-0.100000)"
fill="#000000" stroke="none">
<path d="M2858 6115 c-1 -2 -39 -6 -83 -9 -44 -4 -91 -8 -105 -11 -14 -2 -41
-6 -60 -9 -328 -41 -759 -191 -1072 -373 -140 -81 -355 -227 -388 -263 -3 -3
-27 -23 -55 -45 -93 -75 -218 -195 -317 -307 -79 -89 -198 -237 -198 -247 0
-4 -8 -16 -18 -27 -79 -85 -260 -418 -345 -634 -107 -273 -165 -507 -201 -818
-13 -104 -14 -551 -2 -617 3 -16 10 -70 16 -120 9 -74 24 -153 55 -297 52
-242 202 -605 355 -857 141 -234 286 -417 479 -604 141 -137 137 -134 244
-219 453 -361 1033 -594 1607 -647 142 -13 469 -11 605 4 373 40 700 134 1029
295 151 74 202 104 346 200 693 464 1155 1157 1314 1970 23 121 27 149 43 290
15 136 7 606 -12 680 -2 8 -7 42 -10 75 -4 32 -8 62 -10 65 -2 3 -6 22 -9 42
-3 21 -11 59 -17 85 -6 27 -13 57 -15 69 -2 12 -10 40 -18 63 -9 22 -13 41
-11 41 5 0 -78 244 -109 320 -56 134 -124 273 -189 385 -45 79 -172 271 -190
290 -7 6 -21 24 -32 40 -41 58 -183 221 -251 289 -341 340 -749 594 -1201 747
-62 21 -113 35 -113 32 0 -3 -6 -1 -12 5 -7 6 -17 11 -23 11 -5 1 -26 6 -45
11 -44 12 -268 59 -307 64 -15 2 -55 7 -88 11 -33 3 -71 9 -85 12 -29 5 -496
13 -502 8z"/>
</g>
</svg>
